<svg xmlns="http://www.w3.org/2000/svg" width="1920.001" height="145.936" viewBox="0 0 1920.001 145.936">
  <g id="Groupe_92" data-name="Groupe 92" transform="translate(-132.189 -908.21)" opacity="0.25">
    <path id="Tracé_60" data-name="Tracé 60" d="M132.19,994.443c35.337.007,96.9.037,173.552.193,371.382.746,478.658,3.145,625.085-8.5,58.751-4.672,104-8.269,157.244-16.418,40.263-6.161,126.352-21.236,171.93-28.965,1.2-.2,2.519-.428,4.335-.729,9.615-1.605,32.7-5.35,64.272-9.5,8.434-1.108,17.275-2.21,26.677-3.317,14.8-1.742,64.472-7.431,133.9-11.927,144.359-9.346,276.158-7.187,346.565-5.9,55.122,1,129.6,3.214,216.437,8.4v136.367h-1920Z" transform="translate(0 0)" fill="#b97d1d" opacity="0.2"/>
    <path id="Tracé_61" data-name="Tracé 61" d="M132.19,1017.441c54.638.5,135.412.987,233.183.571,235.083-1,384.644-1.633,520.118-11.784,232.812-17.444,239.431-49.161,442.221-75.612,140.327-18.3,363.763-32.676,724.479-12.842v136.371h-1920Z" transform="translate(-0.001 0.001)" fill="#b97d1d" opacity="0.15"/>
    <path id="Tracé_62" data-name="Tracé 62" d="M2052.19,994.443c-35.334.005-96.9.037-173.549.191-371.382.748-478.659,3.146-625.085-8.5-58.751-4.672-104-8.269-157.245-16.418-40.263-6.161-126.352-21.237-171.93-28.965-1.2-.2-2.519-.428-4.335-.731-9.615-1.605-32.7-5.35-64.272-9.5-8.434-1.108-17.275-2.211-26.677-3.318-14.8-1.742-64.473-7.431-133.906-11.925-144.356-9.346-276.155-7.187-346.563-5.9-55.122,1.006-129.6,3.216-216.437,8.4v136.367h1920Z" transform="translate(0)" fill="#b97d1d" opacity="0.15"/>
    <path id="Tracé_63" data-name="Tracé 63" d="M2052.19,1017.441c-54.635.5-135.409.985-233.183.571-235.08-1-384.642-1.635-520.115-11.784-232.816-17.444-239.431-49.161-442.221-75.612-140.327-18.3-363.764-32.676-724.479-12.842v136.371h1920Z" transform="translate(0 -0.006)" fill="#b97d1d" opacity="0.2"/>
  </g>
</svg>
