<svg xmlns="http://www.w3.org/2000/svg" viewBox="0 0 13.9036 16.81426">
  <defs>
    <style>
      .cls-1 {
        fill: #c2912d;
      }

      .cls-2 {
        fill: #2e2d2c;
      }
    </style>
  </defs>
  <g id="Calque_2" data-name="Calque 2">
    <g id="Calque_1-2" data-name="Calque 1">
      <path class="cls-1" d="M8.76754,0A4.85481,4.85481,0,0,0,3.54085,5.08979a4.80955,4.80955,0,0,0,1.97307,4.093l0-3.9582c-.00617-.09072-.01935-.17828-.01935-.27167A3.10115,3.10115,0,0,1,8.74533,1.61332a3.01587,3.01587,0,0,1,3.20933,2.83492,1.7354,1.7354,0,0,1,.06829.45317V9.93274c0,.022-.00575.042-.00652.0638v5.95552a.94742.94742,0,0,0,1.88717,0V4.99911A4.77109,4.77109,0,0,0,8.76754,0Z"/>
      <path class="cls-2" d="M5.13606,16.81426a4.85481,4.85481,0,0,0,5.22669-5.08979,4.80951,4.80951,0,0,0-1.97308-4.093l0,3.9582c.00616.09072.01935.17827.01935.27167a3.10116,3.10116,0,0,1-3.25075,3.33957A3.01588,3.01588,0,0,1,1.94893,12.366a1.73582,1.73582,0,0,1-.06829-.45317V6.88152c0-.022.00576-.042.00653-.06381V.8622A.88283.88283,0,0,0,.93248,0,.87618.87618,0,0,0,0,.8622v10.953A4.77108,4.77108,0,0,0,5.13606,16.81426Z"/>
    </g>
  </g>
</svg>
