<svg xmlns="http://www.w3.org/2000/svg" viewBox="0 0 19.16251 19.16251">
  <defs>
    <style>
      .cls-1 {
        fill: #1d1d1b;
      }
    </style>
  </defs>
  <g id="Calque_2" data-name="Calque 2">
    <g id="Calque_1-2" data-name="Calque 1">
      <path class="cls-1" d="M17.35041,11.12262c-.45829.0833-1.33308.20826-2.56194.33321a11.12849,11.12849,0,0,0,.16361-1.8291H13.682a10.20382,10.20382,0,0,1-.20575,1.95411c-.95816.06245-2.04121.125-3.27013.125V9.62673H8.9564l0,2.07907c-1.20806-.02086-2.312-.06251-3.27013-.125a10.20312,10.20312,0,0,1-.20574-1.95411H4.22939a10.77058,10.77058,0,0,0,.1655,1.8291c-1.22892-.125-2.10371-.24991-2.56194-.33321a7.62581,7.62581,0,0,1-.164-1.49589l-1.6666,0a9.579,9.579,0,0,0,19.15786,0H17.49371A9.551,9.551,0,0,1,17.35041,11.12262Zm-15.14254,1.333c.58318.0833,1.41633.18746,2.47864.29162a13.678,13.678,0,0,0,2.10366,4.249A7.93809,7.93809,0,0,1,2.20787,12.45564Zm6.74852,5.01972c-.04165,0-.0833-.02085-.125-.02085a12.69309,12.69309,0,0,1-2.81191-4.60316c.8748.06251,1.85375.10416,2.93686.10416Zm1.24972,0V12.95551c1.08311-.02079,2.06207-.04165,2.93686-.10415a12.73209,12.73209,0,0,1-2.79105,4.60315C10.28941,17.45451,10.24776,17.47536,10.20611,17.47536Zm2.16622-.47908A12.893,12.893,0,0,0,14.476,12.76805c1.04146-.0833,1.87461-.20825,2.47864-.29161A8.022,8.022,0,0,1,12.37233,16.99628Z"/>
      <path class="cls-1" d="M1.66892,9.62673c-.00012-.01517-.00257-.03028-.00257-.04545A9.42707,9.42707,0,0,1,1.8121,8.03995c.45828-.08331,1.33308-.20832,2.56194-.33327a11.10908,11.10908,0,0,0-.14581,1.8954c0,.00819.00116.01645.00116.02465H5.48052c-.00007-.01554-.00251-.02985-.00251-.04545a10.18328,10.18328,0,0,1,.18746-1.99956c.9581-.0625,2.062-.10415,3.29093-.125v2.17h1.24971v-2.17c1.20807.02086,2.312.06251,3.29093.14581a11.60726,11.60726,0,0,1,.18746,1.97877c0,.01559-.00245.0299-.00251.04544h1.27009c.00012-.02263.003-.04355.003-.0663a13.16907,13.16907,0,0,0-.14581-1.87461c1.20807.125,2.10372.25,2.56194.33328a13.15029,13.15029,0,0,1,.125,1.56219c0,.01517-.00233.03027-.00245.04544h1.66647c.00006-.01535.00233-.03009.00233-.04544A9.58126,9.58126,0,1,0,0,9.58128c0,.01535.00226.03009.00232.04544ZM16.95463,6.70687c-.58317-.0833-1.41632-.18746-2.45778-.29156A12.894,12.894,0,0,0,12.414,2.187,8.01193,8.01193,0,0,1,16.95463,6.70687ZM10.20611,1.68715c.04166,0,.08331.02085.14581.02085a12.0391,12.0391,0,0,1,2.81191,4.60315c-.87486-.0625-1.8746-.10416-2.95772-.10416Zm-1.24971,0V6.207c-1.08312.02086-2.06207.04165-2.95772.10416A11.9417,11.9417,0,0,1,8.81059,1.708.40638.40638,0,0,0,8.9564,1.68715ZM6.74852,2.187A12.76712,12.76712,0,0,0,4.66566,6.39445c-1.04146.0833-1.87461.20832-2.45778.29162A8.03807,8.03807,0,0,1,6.74852,2.187Z"/>
    </g>
  </g>
</svg>
